<svg width="427" height="443" viewBox="0 0 427 443" fill="none" xmlns="http://www.w3.org/2000/svg">
<path fill-rule="evenodd" clip-rule="evenodd" d="M-260.322 529.562C-276.848 462.969 -253.184 395.009 -227.183 331.513C-203.758 274.306 -164.091 228.995 -119.648 186.028C-69.8407 137.876 -23.5701 60.3987 45.2773 68.1052C115.925 76.0132 134.34 172.671 187.061 220.36C228.563 257.9 294.828 266.262 319.743 316.372C345.603 368.384 342.692 433.19 319.318 486.366C297.37 536.294 237.515 552.622 198.944 591.18C152.382 637.726 133.174 714.294 70.6583 734.942C2.95001 757.306 -74.753 739.187 -135.342 701.59C-197.078 663.281 -242.822 600.079 -260.322 529.562Z" fill="#7D6AF2"/>
</svg>
