<svg width="399" height="484" viewBox="0 0 399 484" fill="none" xmlns="http://www.w3.org/2000/svg">
<path fill-rule="evenodd" clip-rule="evenodd" d="M291.09 -140.138C350.33 -169.439 400.458 -236.718 465.918 -222.794C531.443 -208.855 557.413 -126.432 602.304 -73.9383C651.967 -15.8642 730.765 24.7028 742.481 100.61C754.456 178.197 717.396 260.116 661.684 310.79C610.359 357.472 530.879 334.881 464.535 353.415C404.371 370.223 352.246 434.888 292.102 414.038C231.917 393.173 222.277 308.767 183.543 256.004C145.066 203.592 73.9351 171.093 66.2596 106.4C58.5065 41.0527 102.817 -17.4853 145.537 -64.3297C183.701 -106.179 240.839 -115.283 291.09 -140.138Z" fill="#7D6AF2"/>
</svg>
