<svg width="71" height="76" viewBox="0 0 71 76" fill="none" xmlns="http://www.w3.org/2000/svg">
<g clip-path="url(#clip0)">
<path d="M49.9263 0.322962C50.3606 0.59247 50.6967 1.01166 50.8796 1.51207C51.0626 2.01247 51.0816 2.56449 50.9336 3.07796L42.9417 30.875H57.6875C58.1208 30.8748 58.5447 31.0104 58.9069 31.2652C59.269 31.5199 59.5535 31.8826 59.7253 32.3085C59.8971 32.7343 59.9486 33.2047 59.8735 33.6616C59.7984 34.1184 59.6 34.5417 59.3027 34.8792L23.8027 75.2542C23.4592 75.6452 23.0021 75.9001 22.506 75.9774C22.0098 76.0547 21.5038 75.9499 21.0704 75.6799C20.6371 75.41 20.3019 74.9908 20.1196 74.4909C19.9372 73.9909 19.9185 73.4396 20.0663 72.9267L28.0583 45.125H13.3125C12.8791 45.1252 12.4552 44.9895 12.0931 44.7348C11.7309 44.48 11.4464 44.1173 11.2746 43.6915C11.1028 43.2656 11.0513 42.7952 11.1264 42.3384C11.2015 41.8815 11.3999 41.4582 11.6972 41.1207L47.1972 0.745712C47.5403 0.355258 47.9967 0.100513 48.4921 0.0228977C48.9876 -0.0547176 49.4931 0.0493614 49.9263 0.318212V0.322962Z" fill="#5138ED"/>
</g>
<defs>
<clipPath id="clip0">
<rect width="71" height="76" fill="white"/>
</clipPath>
</defs>
</svg>
